<?xml version="1.0" standalone="no"?><!DOCTYPE svg PUBLIC "-//W3C//DTD SVG 1.1//EN" "http://www.w3.org/Graphics/SVG/1.1/DTD/svg11.dtd"><svg t="1539071408699" class="icon" style="" viewBox="0 0 1024 1024" version="1.1" xmlns="http://www.w3.org/2000/svg" p-id="7376" xmlns:xlink="http://www.w3.org/1999/xlink" width="200" height="200"><defs><style type="text/css"></style></defs><path d="M944.676056 414.647887l-39.661972 0c-32.450704 0-61.295775-28.84507-61.295775-64.901408 0-18.028169 7.211268-32.450704 21.633803-46.873239l25.239437-25.239437c25.239437-25.239437 25.239437-61.295775 0-86.535211L829.295775 137.014085c-10.816901-10.816901-25.239437-18.028169-43.267606-18.028169-18.028169 0-28.84507 3.605634-43.267606 18.028169l-25.239437 25.239437C706.704225 173.070423 692.28169 180.28169 674.253521 180.28169c-36.056338 0-82.929577-32.450704-82.929577-61.295775L591.323944 79.323944c0-32.450704-28.84507-57.690141-61.295775-57.690141l-57.690141 0c-32.450704 0-57.690141 25.239437-57.690141 57.690141l0 39.661972c0 32.450704-28.84507 61.295775-64.901408 61.295775-18.028169 0-36.056338-7.211268-46.873239-21.633803L277.633803 137.014085C266.816901 122.591549 252.394366 118.985915 234.366197 118.985915c-14.422535 0-32.450704 7.211268-43.267606 18.028169L137.014085 194.704225C111.774648 216.338028 111.774648 256 137.014085 277.633803l25.239437 25.239437C173.070423 313.690141 180.28169 331.71831 180.28169 349.746479c0 36.056338-28.84507 64.901408-61.295775 64.901408L79.323944 414.647887c-32.450704 0-57.690141 25.239437-57.690141 57.690141l0 79.323944c0 32.450704 25.239437 57.690141 57.690141 57.690141l39.661972 0c32.450704 0 61.295775 28.84507 61.295775 64.901408 0 18.028169-7.211268 32.450704-21.633803 46.873239l-25.239437 25.239437c-25.239437 25.239437-25.239437 61.295775 0 86.535211l57.690141 57.690141C201.915493 901.408451 216.338028 908.619718 234.366197 908.619718c14.422535 0 32.450704-7.211268 43.267606-18.028169L302.873239 865.352113c10.816901-14.422535 28.84507-21.633803 46.873239-21.633803 36.056338 0 64.901408 28.84507 64.901408 61.295775l0 39.661972c0 32.450704 25.239437 57.690141 57.690141 57.690141l79.323944 0c32.450704 0 57.690141-25.239437 57.690141-57.690141l0-39.661972c0-32.450704 28.84507-61.295775 64.901408-61.295775 18.028169 0 32.450704 7.211268 46.873239 21.633803l25.239437 25.239437c10.816901 10.816901 25.239437 18.028169 43.267606 18.028169 18.028169 0 32.450704-7.211268 43.267606-18.028169l57.690141-57.690141c25.239437-25.239437 25.239437-61.295775 0-86.535211L865.352113 721.126761c-14.422535-10.816901-21.633803-28.84507-21.633803-46.873239 0-36.056338 28.84507-64.901408 61.295775-64.901408l39.661972 0c32.450704 0 57.690141-25.239437 57.690141-57.690141l0-79.323944C1002.366197 439.887324 977.126761 414.647887 944.676056 414.647887zM512 728.338028c-118.985915 0-216.338028-97.352113-216.338028-216.338028s97.352113-216.338028 216.338028-216.338028 216.338028 97.352113 216.338028 216.338028S630.985915 728.338028 512 728.338028z" p-id="7377"></path></svg>